<?xml version="1.0" standalone="no"?><!DOCTYPE svg PUBLIC "-//W3C//DTD SVG 1.1//EN" "http://www.w3.org/Graphics/SVG/1.1/DTD/svg11.dtd"><svg t="1600399446215" class="icon" viewBox="0 0 1024 1024" version="1.1" xmlns="http://www.w3.org/2000/svg" p-id="9899" xmlns:xlink="http://www.w3.org/1999/xlink" width="200" height="200"><defs><style type="text/css"></style></defs><path d="M773.8 64H250.2c-49.7 0-90.2 43.1-90.2 96v770c0 0.3 0 0.7 0.1 1 0 0.2 0 0.4 0.1 0.6 0 0.3 0.1 0.6 0.1 0.9 0 0.2 0.1 0.4 0.1 0.7 0 0.3 0.1 0.6 0.2 0.9 0 0.2 0.1 0.5 0.1 0.7 0.1 0.3 0.1 0.5 0.2 0.8 0.1 0.2 0.1 0.5 0.2 0.7 0.1 0.3 0.1 0.5 0.2 0.8 0.1 0.2 0.1 0.5 0.2 0.7 0.1 0.2 0.2 0.5 0.3 0.7 0.1 0.2 0.2 0.5 0.3 0.7 0.1 0.2 0.2 0.5 0.3 0.7 0.1 0.2 0.2 0.5 0.3 0.7 0.1 0.2 0.2 0.5 0.3 0.7 0.1 0.3 0.2 0.5 0.4 0.8l0.3 0.6c0.1 0.3 0.3 0.5 0.4 0.8l0.3 0.6c0.2 0.3 0.3 0.5 0.5 0.8 0.1 0.2 0.2 0.4 0.3 0.5 0.2 0.3 0.4 0.6 0.6 0.8 0.1 0.2 0.2 0.3 0.3 0.5 0.2 0.3 0.4 0.5 0.6 0.8 0.1 0.1 0.2 0.2 0.2 0.3l0.1 0.1c0.3 0.4 0.6 0.7 0.9 1.1l0.3 0.3c0.4 0.4 0.7 0.8 1.1 1.2l0.6 0.6c0.2 0.2 0.4 0.4 0.6 0.5 0.2 0.2 0.5 0.4 0.8 0.7 0.2 0.1 0.3 0.3 0.5 0.4 0.3 0.2 0.5 0.4 0.8 0.6 0.2 0.1 0.3 0.2 0.5 0.3l0.9 0.6c0.2 0.1 0.3 0.2 0.5 0.3l0.9 0.6c0.2 0.1 0.4 0.2 0.6 0.4 0.4 0.2 0.8 0.4 1.2 0.7 0.3 0.2 0.7 0.4 1 0.5 0.2 0.1 0.3 0.1 0.5 0.2 0.4 0.2 0.8 0.3 1.1 0.5 0.1 0.1 0.3 0.1 0.4 0.2 0.4 0.2 0.8 0.3 1.2 0.5 0.1 0 0.2 0.1 0.3 0.1 0.4 0.1 0.9 0.3 1.3 0.4 0.1 0 0.2 0.1 0.3 0.1 0.5 0.1 1 0.3 1.4 0.4 0.1 0 0.2 0 0.2 0.1l1.5 0.3h0.2c0.5 0.1 1 0.1 1.5 0.2h0.2c0.5 0.1 1 0.1 1.5 0.1h3.8c0.4 0 0.8-0.1 1.2-0.1h0.4c0.4 0 0.7-0.1 1.1-0.1 0.2 0 0.3 0 0.5-0.1 0.4-0.1 0.8-0.1 1.2-0.2 0.1 0 0.2 0 0.3-0.1 0.5-0.1 1-0.2 1.4-0.3 0.1 0 0.3-0.1 0.4-0.1 0.3-0.1 0.7-0.2 1-0.3 0.2-0.1 0.4-0.1 0.6-0.2 0.3-0.1 0.6-0.2 0.8-0.3 0.2-0.1 0.4-0.1 0.6-0.2 0.3-0.1 0.5-0.2 0.8-0.3 0.2-0.1 0.4-0.2 0.6-0.2 0.3-0.1 0.5-0.2 0.8-0.4l0.6-0.3c0.3-0.1 0.5-0.3 0.8-0.4 0.2-0.1 0.4-0.2 0.5-0.3 0.3-0.2 0.6-0.3 0.9-0.5l0.9-0.6c0.2-0.1 0.4-0.2 0.6-0.4 0.2-0.2 0.4-0.3 0.7-0.5 0.2-0.1 0.4-0.2 0.5-0.4 0.2-0.2 0.4-0.3 0.6-0.5 0.1-0.1 0.3-0.2 0.4-0.3l300-240 300 240c0.1 0.1 0.3 0.2 0.4 0.3 0.2 0.2 0.4 0.3 0.6 0.5 0.2 0.1 0.4 0.3 0.5 0.4 0.2 0.2 0.4 0.3 0.7 0.5 0.2 0.1 0.4 0.3 0.7 0.4 0.2 0.2 0.5 0.3 0.7 0.5 0.4 0.2 0.7 0.4 1.1 0.6 0.2 0.1 0.3 0.2 0.5 0.2 0.3 0.1 0.6 0.3 0.8 0.4 0.2 0.1 0.4 0.2 0.5 0.2 0.3 0.1 0.5 0.3 0.8 0.4 0.2 0.1 0.4 0.2 0.5 0.2 0.3 0.1 0.6 0.2 0.8 0.3 0.2 0.1 0.4 0.1 0.5 0.2l0.9 0.3c0.2 0.1 0.3 0.1 0.5 0.2 0.3 0.1 0.7 0.2 1.1 0.3 0.1 0 0.2 0.1 0.4 0.1 0.5 0.1 1 0.2 1.4 0.3 0.1 0 0.2 0 0.3 0.1 0.4 0.1 0.8 0.1 1.2 0.2 0.1 0 0.3 0 0.4 0.1 0.4 0.1 0.7 0.1 1.1 0.1h0.4c0.4 0 0.8 0.1 1.2 0.1h3.8c0.5 0 1-0.1 1.5-0.1h0.2c0.5-0.1 1-0.1 1.5-0.2h0.2l1.5-0.3c0.1 0 0.2 0 0.2-0.1 0.5-0.1 1-0.2 1.4-0.4 0.1 0 0.2-0.1 0.3-0.1 0.5-0.1 0.9-0.3 1.4-0.4 0.1 0 0.2-0.1 0.3-0.1 0.4-0.1 0.8-0.3 1.2-0.5 0.1-0.1 0.3-0.1 0.4-0.2 0.4-0.2 0.8-0.3 1.1-0.5 0.2-0.1 0.3-0.1 0.5-0.2 0.4-0.2 0.7-0.3 1-0.5 0.4-0.2 0.8-0.4 1.2-0.7 0.2-0.1 0.4-0.2 0.6-0.4l0.9-0.6c0.2-0.1 0.3-0.2 0.5-0.3l0.9-0.6c0.2-0.1 0.3-0.2 0.5-0.3 0.3-0.2 0.6-0.4 0.8-0.7 0.2-0.1 0.3-0.3 0.5-0.4 0.3-0.2 0.5-0.4 0.8-0.7 0.2-0.2 0.4-0.4 0.6-0.5l0.6-0.6c0.4-0.4 0.8-0.8 1.1-1.2l0.3-0.3c0.3-0.3 0.6-0.7 0.9-1.1l0.1-0.1c0.1-0.1 0.2-0.2 0.2-0.3 0.2-0.3 0.4-0.6 0.6-0.8 0.1-0.2 0.2-0.3 0.3-0.5 0.2-0.3 0.4-0.6 0.6-0.8 0.1-0.2 0.2-0.3 0.3-0.5 0.2-0.3 0.3-0.5 0.5-0.8l0.3-0.6c0.1-0.3 0.3-0.5 0.4-0.8l0.3-0.6c0.1-0.3 0.2-0.5 0.4-0.8 0.1-0.2 0.2-0.4 0.3-0.7 0.1-0.2 0.2-0.5 0.3-0.8 0.1-0.2 0.2-0.5 0.3-0.7 0.1-0.2 0.2-0.5 0.3-0.8 0.1-0.2 0.2-0.5 0.2-0.7 0.1-0.2 0.2-0.5 0.2-0.7 0.1-0.3 0.2-0.5 0.2-0.8 0.1-0.2 0.1-0.5 0.2-0.7 0.1-0.3 0.1-0.5 0.2-0.8 0-0.2 0.1-0.5 0.1-0.7 0.1-0.3 0.1-0.6 0.2-0.9 0-0.2 0.1-0.4 0.1-0.7 0-0.3 0.1-0.6 0.1-0.9 0-0.2 0-0.4 0.1-0.6 0-0.3 0.1-0.7 0.1-1v-0.6-1V160c0.6-52.9-39.9-96-89.6-96zM704 256c0 17.7-14.3 32-32 32H352c-17.7 0-32-14.3-32-32s14.3-32 32-32h320c17.7 0 32 14.3 32 32z" p-id="9900"></path></svg>