<?xml version="1.0" standalone="no"?><!DOCTYPE svg PUBLIC "-//W3C//DTD SVG 1.1//EN" "http://www.w3.org/Graphics/SVG/1.1/DTD/svg11.dtd"><svg t="1600400376316" class="icon" viewBox="0 0 1191 1024" version="1.1" xmlns="http://www.w3.org/2000/svg" p-id="42551" xmlns:xlink="http://www.w3.org/1999/xlink" width="232.6171875" height="200"><defs><style type="text/css"></style></defs><path d="M892.85594 381.185903a35.711894 35.711894 0 1 0 35.902357 35.711894A35.711894 35.711894 0 0 0 892.85594 381.185903z m197.605815-29.759912c-39.878282-95.231718-121.420441-165.46511-233.31771-205.224353l29.878952-99.755224A36.116629 36.116629 0 0 0 837.216808 3.354061L595.256821 119.298678c-275.695824 6.66622-468.492437 142.371419-476.158591 357.118943-36.711827-10.23741-47.615859-2.380793-47.615859-23.80793a93.731819 93.731819 0 0 1 33.021598-54.758238 36.235669 36.235669 0 0 0-51.28228-51.187048A173.964541 173.964541 0 0 0 0.058582 476.417621c0 68.804916 64.28141 71.423789 119.039648 71.423788 17.236941 98.326749 99.993304 173.797886 163.560476 225.223014v124.99163a126.015371 126.015371 0 0 0 120.872858 125.705868h62.09108a124.205968 124.205968 0 0 0 115.658922-88.803577c13.903831 0.952317 27.736238-0.238079 41.473413-0.23808s27.664814 2.142714 41.473413 1.190397a123.372691 123.372691 0 0 0 115.635114 87.85126h81.399311A113.397168 113.397168 0 0 0 976.183693 904.960352v-119.039647a376.617637 376.617637 0 0 0 101.30274-123.563155 120.563355 120.563355 0 0 0 113.325745-119.991964v-72.376106a120.801434 120.801434 0 0 0-100.469463-118.563489z m27.950509 190.939595A51.591783 51.591783 0 0 1 1071.415411 595.457268h-47.615859c-22.331838 69.042996-55.353436 97.612511-119.039648 142.847578v166.655506a43.282816 43.282816 0 0 1-43.497087 47.37778l-81.399311-0.714238a54.758238 54.758238 0 0 1-48.330097-54.996317v-47.853938a492.443214 492.443214 0 0 1-108.77843 12.142044 478.539384 478.539384 0 0 1-108.77843-12.618203v48.330097a54.758238 54.758238 0 0 1-48.353905 54.996317l-62.09108 0.714238a54.139232 54.139232 0 0 1-48.353905-54.282079V738.304846C266.445506 672.833039 190.522019 608.789709 190.522019 500.22555c0-181.892582 175.916791-291.409057 380.926872-309.503083 48.163441 0 223.175531-88.565498 223.175531-88.565498l-49.496685 164.988951a36.188053 36.188053 0 0 0 24.355512 44.996987 39.402123 39.402123 0 0 0 10.404065 1.428476 36.116629 36.116629 0 0 0 34.735769-25.712564l21.808064-72.852264A285.528499 285.528499 0 0 1 1023.799552 428.801762h47.615859a47.115893 47.115893 0 0 1 47.615859 47.615859z" p-id="42552"></path></svg>